<?xml version="1.0" encoding="UTF-8" standalone="no"?>
<svg
   xmlns:dc="http://purl.org/dc/elements/1.1/"
   xmlns:cc="http://creativecommons.org/ns#"
   xmlns:rdf="http://www.w3.org/1999/02/22-rdf-syntax-ns#"
   xmlns:svg="http://www.w3.org/2000/svg"
   xmlns="http://www.w3.org/2000/svg"
   xmlns:sodipodi="http://sodipodi.sourceforge.net/DTD/sodipodi-0.dtd"
   xmlns:inkscape="http://www.inkscape.org/namespaces/inkscape"
   width="820.97455"
   height="820.97455"
   viewBox="0 0 63.299108 63.299108"
   version="1.1"
   id="svg16"
   sodipodi:docname="gvnapster.svg"
   inkscape:version="0.92.4 (5da689c313, 2019-01-14)">
  <metadata
     id="metadata22">
    <rdf:RDF>
      <cc:Work
         rdf:about="">
        <dc:format>image/svg+xml</dc:format>
        <dc:type
           rdf:resource="http://purl.org/dc/dcmitype/StillImage" />
        <dc:title></dc:title>
      </cc:Work>
    </rdf:RDF>
  </metadata>
  <defs
     id="defs20" />
  <sodipodi:namedview
     pagecolor="#ffffff"
     bordercolor="#666666"
     borderopacity="1"
     objecttolerance="10"
     gridtolerance="10"
     guidetolerance="10"
     inkscape:pageopacity="0"
     inkscape:pageshadow="2"
     inkscape:window-width="1128"
     inkscape:window-height="778"
     id="namedview18"
     showgrid="false"
     inkscape:zoom="0.1888"
     inkscape:cx="854.59827"
     inkscape:cy="191.72671"
     inkscape:window-x="906"
     inkscape:window-y="405"
     inkscape:window-maximized="0"
     inkscape:current-layer="svg16" />
  <path
     style="clip-rule:evenodd;fill:#ffffff;fill-rule:evenodd;stroke-width:0.27219424"
     inkscape:connector-curvature="0"
     id="path2"
     d="M 4.0838137,5.7173375 H 57.581768 V 57.173391 H 4.0838137 Z" />
  <path
     inkscape:connector-curvature="0"
     style="clip-rule:evenodd;fill:#000000;fill-rule:evenodd"
     id="path4"
     d="m 31.407814,56.097507 c -10.625,0 -19.396,-8.322 -20.074,-18.783 -2.5480003,-0.92 -4.4160003,-3.809 -4.4160003,-7.213 0,-3.385 1.847,-6.259 4.3730003,-7.198 v -8.046 l 3.362,2.554 c 3.907,-4.967 9.97,-8.167 16.755,-8.167 6.785,0 12.848,3.2 16.755,8.167 l 3.362,-2.554 v 8.046 c 2.526,0.939 4.372,3.813 4.372,7.198 0,3.404 -1.868,6.293 -4.416,7.213 -0.678,10.46 -9.448,18.783 -20.073,18.783 z" />
  <path
     style="clip-rule:evenodd;fill:#ffffff;fill-rule:evenodd"
     inkscape:connector-curvature="0"
     id="path6"
     d="m 31.407814,15.925507 c -4.77,0 -9.056,1.573 -12.507,4.368 l -0.922,-0.721 c 3.188,-3.89 8.027,-6.379 13.429,-6.379 5.401,0 10.241,2.489 13.429,6.379 l -0.922,0.721 c -3.452,-2.794 -7.737,-4.368 -12.507,-4.368 z" />
  <path
     sodipodi:nodetypes="scccscccs"
     style="clip-rule:evenodd;fill:#ffffff;fill-rule:evenodd"
     inkscape:connector-curvature="0"
     id="path8"
     d="m 31.407814,51.841507 c -7.901,0 -14.482,-5.84 -15.647,-13.424 v -16.397 l 4.087,3.196 c 2.893,-3.095 7.006,-5.035 11.56,-5.035 4.553,0 8.667,1.94 11.559,5.035 l 4.087,-3.196 v 16.397 c -1.164,7.584 -7.745,13.424 -15.646,13.424 z" />
  <g
     id="g3737"
     transform="matrix(0.3780714,0,0,-0.38951853,-14.981561,230.85428)">
    <g
       id="g3735"
       transform="translate(0.34455,0.34455)">
      <path
         id="path3727"
         d="m 144.2,523.42 -3.98,-7.066 h -5.626 l 4.805,14.759 h -30.148 c -5.318,0 -10.037,-3.385 -11.743,-8.421 -0.008,-0.024 -9.621,-29.987 -9.621,-29.987 -0.294,-0.993 -0.443,-2.014 -0.443,-3.036 0,-5.864 4.771,-10.635 10.636,-10.635 h 18.605 l -0.306,-9.489 h 18.768 l 33.406,53.875"
         inkscape:connector-curvature="0"
         style="fill:#ffffff" />
      <path
         id="path3729"
         d="m 89.379,492.26 c -0.248,-0.838 -0.378,-1.709 -0.378,-2.594 0,-5.006 4.073,-9.078 9.079,-9.078 h 20.211 l -0.305,-9.489 h 16.296 l 31.477,50.762 H 145.11 l -7.183,-12.751 0.519,5.686 h -5.993 l 4.804,14.758 h -28.006 c -4.652,0 -8.777,-2.96 -10.269,-7.364"
         inkscape:connector-curvature="0" />
      <path
         id="path3731"
         d="m 92.8,491.34 0.014,-0.005 c 0,0.005 0.001,0.009 0.002,0.014 z m 54.382,26.984 -14.283,-25.359 1.665,18.292 h -21.793 l -2.496,-8.058 h 3.423 l -3.145,-9.909 h -6.044 l 7.759,24.086 h 6.085 l -1.143,-3.495 h 11.214 l 3.95,12.136 h -23.123 c -3.13,0 -5.907,-1.992 -6.911,-4.956 -0.004,-0.015 -4.774,-14.873 -4.774,-14.873 l -3.28,-10.216 -1.493,-4.653 c -0.164,-0.53 -0.247,-1.084 -0.247,-1.646 0,-3.05 2.483,-5.532 5.534,-5.532 h 20.835 l 3.376,10.548 -0.643,-20.037 h 10.66 l 27.082,43.672"
         inkscape:connector-curvature="0"
         style="fill:#ffffff" />
      <path
         id="path3733"
         d="m 112.15,504.58 h 2.944 0.494 l -0.15,-0.471 -3.794,-11.95 -0.079,-0.252 h -0.264 -8.194 -0.495 l 0.152,0.471 8.417,26.13 0.08,0.25 h 0.263 8.237 0.497 l -0.154,-0.473 -0.988,-3.023 h 8.304 l 3.051,9.372 h -21.22 c -2.537,0 -4.788,-1.615 -5.6,-4.011 l -9.538,-29.715 c -0.122,-0.397 -0.185,-0.813 -0.185,-1.236 0,-2.289 1.863,-4.15 4.152,-4.15 h 19.825 l 4.939,15.425 0.08,0.25 h 0.263 0.324 0.372 l -0.012,-0.371 -0.796,-24.793 h 8.464 l 25.367,40.908 h -8.915 l -15.92,-28.264 -0.104,-0.183 h -0.21 -0.258 -0.395 l 0.037,0.392 1.909,20.988 h -19.259"
         inkscape:connector-curvature="0"
         style="fill:#0033a0" />
    </g>
  </g>
</svg>
